<svg xmlns="http://www.w3.org/2000/svg" viewBox="0 0 1024 1024" role="img" aria-labelledby="title">
  <title id="title">tesseract</title>
  <defs>
    <linearGradient id="topLeft" x1="0" y1="0" x2="1" y2="1">
      <stop offset="0" stop-color="#ff303b"/>
      <stop offset="1" stop-color="#760008"/>
    </linearGradient>
    <linearGradient id="topRight" x1="0" y1="1" x2="1" y2="0">
      <stop offset="0" stop-color="#830008"/>
      <stop offset="1" stop-color="#ff3340"/>
    </linearGradient>
    <linearGradient id="sideLight" x1="0" y1="0" x2="1" y2="1">
      <stop offset="0" stop-color="#ff3540"/>
      <stop offset="1" stop-color="#930009"/>
    </linearGradient>
    <linearGradient id="sideDark" x1="0" y1="0" x2="1" y2="1">
      <stop offset="0" stop-color="#b80012"/>
      <stop offset="1" stop-color="#4a0004"/>
    </linearGradient>
    <linearGradient id="centerTop" x1="0" y1="0" x2="1" y2="1">
      <stop offset="0" stop-color="#7a0008"/>
      <stop offset="1" stop-color="#e92430"/>
    </linearGradient>
    <filter id="softShadow" x="-20%" y="-20%" width="140%" height="150%">
      <feDropShadow dx="0" dy="18" stdDeviation="18" flood-color="#430005" flood-opacity=".28"/>
    </filter>
  </defs>
  <g filter="url(#softShadow)" stroke="#870009" stroke-width="1.5" stroke-linejoin="round">
    <path d="M512 78 890 296 738 384 512 253Z" fill="url(#topRight)"/>
    <path d="M890 296v436l-152-88V384Z" fill="url(#sideDark)"/>
    <path d="m890 732-378 218V774l226-130Z" fill="url(#sideLight)"/>
    <path d="M512 950 134 732l152-88 226 130Z" fill="url(#topLeft)"/>
    <path d="M134 732V296l152 88v260Z" fill="url(#sideLight)"/>
    <path d="M134 296 512 78v175L286 384Z" fill="url(#topLeft)"/>
    <path d="m512 365 154 89-154 89-154-89Z" fill="url(#centerTop)"/>
    <path d="m358 454 154 89v178l-154-89Z" fill="url(#sideLight)"/>
    <path d="m512 543 154-89v178l-154 89Z" fill="url(#sideDark)"/>
  </g>
</svg>
